<svg xmlns="http://www.w3.org/2000/svg" width="24" height="24" viewBox="0 0 24 24">
  <g fill="none" fill-rule="evenodd">
    <path stroke="currentColor"
      d="M18.5 9.5a1.1 1.1 0 00-.1 0h-3.1a2 2 0 01-1-.2 1.4 1.4 0 01-.6-.6 2 2 0 01-.2-1V4.5a1.1 1.1 0 00-.1 0H7.6c-.8 0-1 0-1.3.2a1.3 1.3 0 00-.6.6c-.1.2-.2.5-.2 1.3v10.8c0 .8 0 1 .2 1.3.1.3.3.5.6.6.2.1.5.2 1.3.2h8.8c.8 0 1 0 1.3-.2.3-.1.5-.3.6-.6.1-.2.2-.5.2-1.3V9.5zm-5-5z">
    </path>
    <path stroke="currentColor" stroke-linecap="round" stroke-linejoin="round" d="M13.5 4.5l5 5"></path>
    <rect width="6" height="1" x="9" y="12" fill="currentColor" rx="0.5"></rect>
    <rect width="6" height="1" x="9" y="15" fill="currentColor" rx="0.5"></rect>
  </g>
</svg>