<svg width="200" height="200" viewBox="0 0 880 800" fill="none" xmlns="http://www.w3.org/2000/svg" xmlns:xlink="http://www.w3.org/1999/xlink">
  <style>
    svg {
      color: var(--secondary-color);
    }
    :host-context(.dark) svg {
      color: #eee;
    }
  </style>
  <path opacity="0.8" fill-rule="evenodd" clip-rule="evenodd"
    d="M189.001 477.135a4.166 4.166 0 013.717 3.996v57.432c-.16 4.237-7.793 5.156-7.993 0v-57.432c.08-2.318 1.319-4.116 4.276-3.996zm-16.586 0a4.166 4.166 0 013.717 3.996v57.432c-.16 3.997-7.793 5.795-7.993 0v-57.432c.08-2.318 1.319-4.116 4.276-3.996zm75.097-42.684c-20.783 0-37.648 14.947-37.648 33.332v225.09c0 18.385 16.865 33.332 37.648 33.332h-77.495c-10.631 0-20.822-4.236-28.376-11.75a40.175 40.175 0 01-11.75-28.376V466.544a40.175 40.175 0 0111.75-28.376 40.177 40.177 0 0128.376-11.751h495.424l.839.08c3.877 1.279 3.877 7.394-.839 7.914H247.512v.04z"
    fill="currentColor"></path>
  <path
    d="M339.475 230.263c.999.2 1.838.679 2.557 1.399l44.603 53.834c1.319 1.879 1.039 2.598.679 3.957l-15.107 40.126h35.89c1.918.4 1.958.8 2.638 1.559l72.938 94.48c.96 1.439.76 1.159.84 2.438v32.773c-.32 4.356-7.634 4.956-7.994 0v-31.414l-70.94-91.843h-39.207c-2.678-.199-4.516-2.717-3.757-5.395l16.346-43.364-43.443-52.515c-1.399-2.798.44-6.235 3.957-6.035z"
    fill="currentColor"></path>
  <path
    d="M581.831 300.483c2.958.44 4.596 3.957 2.678 6.515L482.355 429.934c-5.476 5.915-8.673-1.718-6.155-5.116l102.154-122.936c1.319-1.439 1.359-1.519 3.477-1.439v.04z"
    fill="currentColor"></path>
  <path fill-rule="evenodd" clip-rule="evenodd"
    d="M31.853 732.999H867.75a4.008 4.008 0 003.997-3.996 4.009 4.009 0 00-3.997-3.997H31.853a4.009 4.009 0 00-3.996 3.997 4.008 4.008 0 003.996 3.996z"
    fill="currentColor"></path>
  <path opacity="0.8" fill-rule="evenodd" clip-rule="evenodd"
    d="M129.931 478.933v-.479.479zm-7.993 4.756v174.853c-9.472-5.435-23.98-17.505-23.98-40.326V506.51c0-4.636 2.638-8.632 8.433-12.549l15.547-10.272z"
    fill="currentColor"></path>
  <path opacity="0.53" fill-rule="evenodd" clip-rule="evenodd"
    d="M229.847 522.377H285.8v-7.994h-55.953v7.994zm0 19.983H285.8v-7.993h-55.953v7.993zm0 19.983H285.8v-7.993h-55.953v7.993zm0 19.983H285.8v-7.993h-55.953v7.993zm27.737 39.967c-17.026.319-28.696 29.455-7.514 38.407 15.507 6.555 38.088-14.747 22.581-31.853-3.797-4.156-9.392-6.594-15.067-6.554zm.599-7.994c21.222.4 36.969 30.615 19.184 48-9.552 9.312-26.058 10.431-36.809 1.998-17.305-13.588-10.311-48.759 16.186-49.958h1.439v-.04zm435.274-121.657c0-14.468-11.75-26.218-26.218-26.218H332.041c-14.468 0-26.218 11.75-26.218 26.218v171.376c0 14.467 11.75 26.218 26.218 26.218h335.198c14.468 0 26.218-11.751 26.218-26.218V492.642zm34.291 233.563H247.552c-20.782 0-37.648-14.907-37.648-33.332v-225.09c0-18.385 16.866-33.332 37.648-33.332h480.236c20.783 0 37.649 14.907 37.649 33.332v225.09c0 18.385-16.866 33.332-37.649 33.332h-.04z"
    fill="currentColor"></path>
  <path opacity="0.28" fill-rule="evenodd" clip-rule="evenodd"
    d="M129.931 478.933v-.48.48zm-7.993 4.756v174.853c-9.472-5.435-23.98-17.505-23.98-40.326V506.51c0-4.636 2.638-8.633 8.433-12.55l15.547-10.271zm47.6-57.232c-.56 0-1.079 0-1.599.04l-2.358.2-1.039.12c-1.599.24-3.197.559-4.756.959l-.48.12a40.895 40.895 0 00-9.712 4.157l-1.798 1.119-2.278 1.638-.6.48a33.639 33.639 0 00-2.238 1.918c-.359.32-.679.64-.999.959l-1.718 1.799-.88 1.039c-.319.4-.679.839-.999 1.239-.44.599-.879 1.199-1.279 1.798a41.576 41.576 0 00-2.598 4.437l-.239.479-1 2.198-.799 2.119c-.2.599-.4 1.199-.599 1.838l-.44 1.599c-.16.599-.28 1.239-.44 1.878a36.095 36.095 0 00-.639 4.636l-.08 1.199v221.614c-.04 2.678.2 5.276.719 7.873l.44 1.919c.2.719.4 1.478.639 2.198l.84 2.438.759 1.838 1.199 2.478 1.039 1.839s.24.359.36.559a43.453 43.453 0 004.196 5.595l1.519 1.599 2.198 2.038 1.879 1.519 1.598 1.159 1.679 1.079 1.199.72 1.718.919 1.759.839 1.798.76 1.279.479 1.879.6c.399.12.839.239 1.239.359l-95.84 1.319s0-26.497-10.87-55.233c-2.918-7.674-4.876-15.667-8.673-22.901-3.677-6.954-8.833-16.746-14.748-28.017-39.087-74.177-34.171-163.822 12.79-233.283 41.964-62.068 112.585-98.597 187.482-96.959 13.069.28 26.418 0 39.966-.759-6.874 9.832-10.311 22.181-6.674 34.691 4.396 15.187 16.066 21.901 26.697 24.699a50.59 50.59 0 003.158.719 39.9 39.9 0 00-3.238 2.558c-5.435 4.996-8.872 11.91-5.595 21.062 3.317 9.193 9.232 11.031 15.987 12.27 3.477.64 7.274 1.039 10.631 3.517 3.357 2.478 6.115 7.074 8.033 15.627l7.793-1.759c-2.078-9.272-5.235-14.787-8.712-18.264-3.717-3.717-7.874-5.236-12.03-6.155-2.078-.44-4.157-.759-6.115-1.199-3.357-.759-6.355-1.998-8.073-6.754-2.518-6.994 1.838-11.71 6.474-14.788 5.476-3.637 11.671-5.235 11.671-5.235a3.998 3.998 0 002.957-4.557c-.36-2.078-2.278-3.477-4.356-3.277 0 0-7.834.799-16.546-1.519-8.353-2.198-17.626-7.313-21.063-19.223-3.597-12.43 1.479-24.58 9.672-33.173 61.109-4.556 125.934-18.744 187.682-37.808l18.505 23.341-19.184 15.666c-.919.76-1.479 1.879-1.479 3.078a3.88 3.88 0 001.479 3.077l20.663 16.946-18.345 19.184 5.795 5.515 21.302-22.301a4.122 4.122 0 001.119-2.997c-.04-1.12-.599-2.159-1.439-2.838l-20.223-16.586 18.465-15.067c1.679-1.399 1.958-3.877.599-5.556l-19.024-24.02c57.352-18.144 117.382-20.622 174.374-8.672 9.232 5.315 17.545 12.909 23.22 21.582 7.314 11.27 10.112 24.539 3.917 37.208-6.195 12.71-18.025 18.784-29.895 21.662-18.624 4.516-37.488 1.159-37.488 1.159-2.079-.36-4.077.959-4.596 2.998-.48 2.038.719 4.156 2.717 4.756 0 0 14.748 4.476 23.82 12.789 5.036 4.636 8.273 10.631 4.037 17.945-3.357 5.755-7.954 7.593-13.149 8.353-4.157.599-8.593.639-13.109.999-6.395.559-12.869 1.838-18.984 5.875-5.995 3.957-11.75 10.671-16.466 22.301l7.393 2.998c3.757-9.273 8.114-14.908 12.91-18.265 7.194-5.076 15.187-4.956 22.541-5.395 10.271-.6 19.503-2.079 25.778-12.91 6.514-11.27 2.238-20.662-5.555-27.856-2.238-2.038-4.796-3.917-7.394-5.556 5.995-.199 12.749-.879 19.424-2.517 14.028-3.398 27.856-10.871 35.21-25.939 7.514-15.347 4.436-31.413-4.396-45.082-2.918-4.516-6.475-8.752-10.472-12.589a343.417 343.417 0 01134.927 71.859c60.269 52.157 85.328 134.248 64.426 211.143-8.673 31.933-17.186 63.347-23.141 85.248a439.82 439.82 0 00-11.87 60.15c-3.157 25.099.72 53.834.72 53.834h-107.71c20.783 0 37.649-14.907 37.649-33.332v-225.09c0-18.385-16.866-33.332-37.649-33.332h-62.267c1.998-.2 3.157-1.439 3.517-2.878l.119-.799v-.8l-.199-.799-.32-.759-.32-.52-.399-.479-.48-.4-.6-.32-.439-.16-.839-.08H169.578l-.04.24z"
    fill="currentColor"></path>
  <path opacity="0.8"
    d="M285.8 574.333h-55.953v7.994H285.8v-7.994zM285.8 554.35h-55.953v7.993H285.8v-7.993zM285.8 534.367h-55.953v7.993H285.8v-7.993zM285.8 514.384h-55.953v7.993H285.8v-7.993z"
    fill="currentColor"></path>
  <path opacity="0.28" d="M581.551 550.353H333.76v7.994h247.791v-7.994zM477.639 622.293H305.783v7.993h171.856v-7.993z"
    fill="currentColor"></path>
  <path d="M497.622 494.4H305.783v7.994h191.839V494.4z" fill="currentColor"></path>
  <path opacity="0.28" d="M637.504 622.293h-83.929v7.993h83.929v-7.993zM693.457 654.266H421.686v7.993h271.771v-7.993z"
    fill="currentColor"></path>
  <path opacity="0.28" fill-rule="evenodd" clip-rule="evenodd"
    d="M400.544 127.868c13.748 4.317 30.934 3.278 43.363 1.479 2.998-.44 11.031-1.639 16.586-4.556 1.199-.64 2.238-1.319 3.038-2.158.679-.72 1.119-1.519.919-2.478-2.238-11.111-13.629-13.829-26.058-12.19-12.43 1.639-26.098 7.873-34.931 16.666a44.378 44.378 0 00-2.917 3.237zm-11.551 3.717c-1.678 3.877-2.518 7.954-2.398 12.11.32 12.15 7.994 20.503 17.306 25.978 2.957 1.759 6.075 3.198 9.112 4.397a34.602 34.602 0 00-3.597 1.238c-8.233 3.238-14.348 9.073-13.349 18.345.999 9.192 7.394 12.549 15.028 15.307 4.796 1.759 10.231 3.158 13.548 7.794 2.119 2.997 3.238 7.313 2.878 13.788l7.993.4c.48-9.273-1.598-15.228-4.756-19.384-3.157-4.196-7.553-6.594-12.15-8.393-3.037-1.199-6.154-2.118-8.872-3.397-2.918-1.359-5.316-3.157-5.715-7.034-.56-5.316 3.597-8.153 8.353-10.032 9.072-3.597 20.862-3.437 20.862-3.437 2.118 0 3.877-1.599 4.037-3.717.16-2.118-1.399-3.956-3.517-4.236 0 0-14.228-1.719-25.779-8.553-6.994-4.156-13.109-10.191-13.348-19.344-.08-2.997.519-5.875 1.678-8.632l1.799.599c14.867 4.716 33.531 3.717 47 1.799 4.117-.6 16.266-2.678 22.461-7.514 3.717-2.878 5.635-6.635 4.716-11.151-3.037-15.267-17.865-20.782-34.93-18.544-14.069 1.838-29.536 8.952-39.527 18.944-1.799 1.798-3.437 3.677-4.836 5.675-4.996-2.798-8.992-6.754-11.271-12.35-5.875-14.427 4.277-25.098 19.904-31.293 25.858-10.232 67.103-8.513 90.004 11.23l5.236-6.035c-24.979-21.541-69.982-23.78-98.158-12.589-20.383 8.073-32.013 22.9-24.379 41.725 2.997 7.354 8.193 12.629 14.707 16.306h-.04z"
    fill="currentColor"></path>
  <path d="M693.457 574.333H445.665v7.994h247.792v-7.994z" fill="currentColor"></path>
  <path opacity="0.28"
    d="M385.716 574.333h-27.977v7.994h27.977v-7.994zM469.645 522.377h-27.976v7.993h27.976v-7.993zM529.595 522.377h-27.977v7.993h27.977v-7.993zM529.595 622.293h-27.977v7.993h27.977v-7.993zM593.581 598.313h-20.023v7.993h20.023v-7.993zM569.601 522.377h-20.023v7.993h20.023v-7.993z"
    fill="currentColor"></path>
  <path d="M325.806 654.266h-20.023v7.993h20.023v-7.993z" fill="currentColor"></path>
  <path opacity="0.28" d="M630.83 598.313h-20.024v7.993h20.024v-7.993zM606.85 522.377h-20.023v7.993h20.023v-7.993z"
    fill="currentColor"></path>
  <path d="M363.055 654.266h-20.023v7.993h20.023v-7.993z" fill="currentColor"></path>
  <path opacity="0.28" d="M669.477 598.313h-20.023v7.993h20.023v-7.993zM645.497 522.377h-20.023v7.993h20.023v-7.993z"
    fill="currentColor"></path>
  <path d="M401.702 654.266h-20.023v7.993h20.023v-7.993z" fill="currentColor"></path>
</svg>